<mxfile host="app.diagrams.net" modified="2024-04-29T01:25:33.645Z" agent="Mozilla/5.0 (Windows NT 10.0; Win64; x64) AppleWebKit/537.36 (KHTML, like Gecko) Chrome/123.0.0.0 Safari/537.36" etag="v-EmD_vgNFzu9K1I0smZ" version="24.3.0" type="device">
  <diagram name="Page-1" id="A-UDxmqZQ9uhGc6-1V6c">
    <mxGraphModel dx="1434" dy="784" grid="1" gridSize="10" guides="1" tooltips="1" connect="1" arrows="1" fold="1" page="1" pageScale="1" pageWidth="850" pageHeight="1100" background="#ffffff" math="0" shadow="0">
      <root>
        <mxCell id="0" />
        <mxCell id="1" parent="0" />
        <mxCell id="KtVuwhyKOnfbmAdPDO5n-14" value="&lt;font style=&quot;font-size: 35px;&quot;&gt;&lt;b&gt;Flow of vacuumState Variable&lt;/b&gt;&lt;/font&gt;" style="text;html=1;align=center;verticalAlign=middle;whiteSpace=wrap;rounded=0;" vertex="1" parent="1">
          <mxGeometry x="150" y="160" width="530" height="90" as="geometry" />
        </mxCell>
        <mxCell id="KtVuwhyKOnfbmAdPDO5n-15" value="" style="group" vertex="1" connectable="0" parent="1">
          <mxGeometry x="270" y="260" width="290" height="550" as="geometry" />
        </mxCell>
        <mxCell id="KtVuwhyKOnfbmAdPDO5n-7" style="edgeStyle=orthogonalEdgeStyle;rounded=0;orthogonalLoop=1;jettySize=auto;html=1;exitX=0.5;exitY=1;exitDx=0;exitDy=0;entryX=0.5;entryY=0;entryDx=0;entryDy=0;" edge="1" parent="KtVuwhyKOnfbmAdPDO5n-15" source="KtVuwhyKOnfbmAdPDO5n-1" target="KtVuwhyKOnfbmAdPDO5n-2">
          <mxGeometry relative="1" as="geometry" />
        </mxCell>
        <mxCell id="KtVuwhyKOnfbmAdPDO5n-1" value="&lt;font style=&quot;font-size: 14px;&quot;&gt;Charging, not Dirty&lt;/font&gt;" style="rounded=0;whiteSpace=wrap;html=1;" vertex="1" parent="KtVuwhyKOnfbmAdPDO5n-15">
          <mxGeometry x="60" width="120" height="60" as="geometry" />
        </mxCell>
        <mxCell id="KtVuwhyKOnfbmAdPDO5n-8" style="edgeStyle=orthogonalEdgeStyle;rounded=0;orthogonalLoop=1;jettySize=auto;html=1;exitX=0.5;exitY=1;exitDx=0;exitDy=0;entryX=0.5;entryY=0;entryDx=0;entryDy=0;" edge="1" parent="KtVuwhyKOnfbmAdPDO5n-15" source="KtVuwhyKOnfbmAdPDO5n-2" target="KtVuwhyKOnfbmAdPDO5n-3">
          <mxGeometry relative="1" as="geometry" />
        </mxCell>
        <mxCell id="KtVuwhyKOnfbmAdPDO5n-2" value="&lt;font style=&quot;font-size: 14px;&quot;&gt;Charging, dirty&lt;/font&gt;" style="rounded=0;whiteSpace=wrap;html=1;" vertex="1" parent="KtVuwhyKOnfbmAdPDO5n-15">
          <mxGeometry x="60" y="100" width="120" height="60" as="geometry" />
        </mxCell>
        <mxCell id="KtVuwhyKOnfbmAdPDO5n-9" style="edgeStyle=orthogonalEdgeStyle;rounded=0;orthogonalLoop=1;jettySize=auto;html=1;exitX=0.5;exitY=1;exitDx=0;exitDy=0;entryX=0.5;entryY=0;entryDx=0;entryDy=0;" edge="1" parent="KtVuwhyKOnfbmAdPDO5n-15" source="KtVuwhyKOnfbmAdPDO5n-3" target="KtVuwhyKOnfbmAdPDO5n-4">
          <mxGeometry relative="1" as="geometry" />
        </mxCell>
        <mxCell id="KtVuwhyKOnfbmAdPDO5n-10" style="edgeStyle=orthogonalEdgeStyle;rounded=0;orthogonalLoop=1;jettySize=auto;html=1;exitX=0.5;exitY=1;exitDx=0;exitDy=0;entryX=0.5;entryY=0;entryDx=0;entryDy=0;" edge="1" parent="KtVuwhyKOnfbmAdPDO5n-15" source="KtVuwhyKOnfbmAdPDO5n-3" target="KtVuwhyKOnfbmAdPDO5n-5">
          <mxGeometry relative="1" as="geometry" />
        </mxCell>
        <mxCell id="KtVuwhyKOnfbmAdPDO5n-3" value="&lt;font style=&quot;font-size: 14px;&quot;&gt;Vacuuming,&lt;/font&gt;&lt;div&gt;&lt;font style=&quot;font-size: 14px;&quot;&gt;reward not ready&lt;/font&gt;&lt;/div&gt;" style="rounded=0;whiteSpace=wrap;html=1;" vertex="1" parent="KtVuwhyKOnfbmAdPDO5n-15">
          <mxGeometry x="60" y="210" width="120" height="60" as="geometry" />
        </mxCell>
        <mxCell id="KtVuwhyKOnfbmAdPDO5n-11" style="edgeStyle=orthogonalEdgeStyle;rounded=0;orthogonalLoop=1;jettySize=auto;html=1;exitX=0.5;exitY=1;exitDx=0;exitDy=0;entryX=0.5;entryY=0;entryDx=0;entryDy=0;" edge="1" parent="KtVuwhyKOnfbmAdPDO5n-15" source="KtVuwhyKOnfbmAdPDO5n-4" target="KtVuwhyKOnfbmAdPDO5n-6">
          <mxGeometry relative="1" as="geometry" />
        </mxCell>
        <mxCell id="KtVuwhyKOnfbmAdPDO5n-4" value="&lt;font style=&quot;font-size: 14px;&quot;&gt;Vacuuming,&lt;/font&gt;&lt;div&gt;&lt;font style=&quot;font-size: 14px;&quot;&gt;reward ready&lt;/font&gt;&lt;/div&gt;" style="rounded=0;whiteSpace=wrap;html=1;" vertex="1" parent="KtVuwhyKOnfbmAdPDO5n-15">
          <mxGeometry x="130" y="330" width="120" height="60" as="geometry" />
        </mxCell>
        <mxCell id="KtVuwhyKOnfbmAdPDO5n-13" style="edgeStyle=orthogonalEdgeStyle;rounded=0;orthogonalLoop=1;jettySize=auto;html=1;exitX=0;exitY=0.5;exitDx=0;exitDy=0;entryX=0;entryY=0.5;entryDx=0;entryDy=0;" edge="1" parent="KtVuwhyKOnfbmAdPDO5n-15" source="KtVuwhyKOnfbmAdPDO5n-5" target="KtVuwhyKOnfbmAdPDO5n-2">
          <mxGeometry relative="1" as="geometry" />
        </mxCell>
        <mxCell id="KtVuwhyKOnfbmAdPDO5n-5" value="&lt;span style=&quot;font-size: 14px;&quot;&gt;Stopped Vacuuming early&lt;/span&gt;" style="rounded=0;whiteSpace=wrap;html=1;" vertex="1" parent="KtVuwhyKOnfbmAdPDO5n-15">
          <mxGeometry y="330" width="120" height="60" as="geometry" />
        </mxCell>
        <mxCell id="KtVuwhyKOnfbmAdPDO5n-12" style="edgeStyle=orthogonalEdgeStyle;rounded=0;orthogonalLoop=1;jettySize=auto;html=1;exitX=0.5;exitY=1;exitDx=0;exitDy=0;entryX=1;entryY=0.5;entryDx=0;entryDy=0;" edge="1" parent="KtVuwhyKOnfbmAdPDO5n-15" source="KtVuwhyKOnfbmAdPDO5n-6" target="KtVuwhyKOnfbmAdPDO5n-1">
          <mxGeometry relative="1" as="geometry">
            <Array as="points">
              <mxPoint x="190" y="550" />
              <mxPoint x="290" y="550" />
              <mxPoint x="290" y="30" />
            </Array>
          </mxGeometry>
        </mxCell>
        <mxCell id="KtVuwhyKOnfbmAdPDO5n-6" value="&lt;span style=&quot;font-size: 14px;&quot;&gt;Vacuuming Complete, take reward&lt;/span&gt;" style="rounded=0;whiteSpace=wrap;html=1;" vertex="1" parent="KtVuwhyKOnfbmAdPDO5n-15">
          <mxGeometry x="130" y="440" width="120" height="60" as="geometry" />
        </mxCell>
      </root>
    </mxGraphModel>
  </diagram>
</mxfile>
